<?xml version="1.0" standalone="no"?>
<!DOCTYPE svg PUBLIC "-//W3C//DTD SVG 20010904//EN"
 "http://www.w3.org/TR/2001/REC-SVG-20010904/DTD/svg10.dtd">
<svg version="1.0" xmlns="http://www.w3.org/2000/svg"
 width="400.000000pt" height="400.000000pt" viewBox="0 0 400.000000 400.000000"
 preserveAspectRatio="xMidYMid meet">
<metadata>
Created by potrace 1.10, written by Peter Selinger 2001-2011
</metadata>
<g transform="translate(0.000000,400.000000) scale(0.100000,-0.100000)"
fill="#ffffff" stroke="none">
<path d="M587 3103 c-13 -13 -7 -100 13 -173 69 -254 327 -628 588 -854 l80
-70 -33 -40 c-99 -123 -155 -265 -163 -411 -5 -122 8 -192 54 -284 139 -278
514 -448 946 -428 392 19 689 172 806 418 48 100 62 162 62 273 0 149 -52 296
-145 410 l-45 56 158 157 c200 200 320 360 420 558 73 147 122 314 108 371 -7
25 -9 26 -65 22 -68 -5 -206 -68 -308 -139 -225 -160 -436 -402 -583 -671 -23
-43 -43 -78 -44 -78 -1 0 -29 11 -62 24 -194 79 -491 84 -696 11 -40 -14 -80
-28 -88 -31 -10 -3 -26 15 -50 62 -189 361 -531 700 -808 801 -61 22 -132 30
-145 16z m501 -303 c142 -123 314 -344 416 -534 l37 -70 -28 -22 c-40 -33 -10
-31 71 6 129 59 219 74 431 74 212 0 295 -15 427 -76 71 -33 98 -32 57 1 l-24
19 39 74 c86 159 186 296 311 427 72 75 225 211 238 211 16 0 32 -154 32 -306
l-1 -170 -64 -80 c-88 -108 -306 -328 -318 -320 -28 17 -15 -16 29 -74 101
-132 149 -276 148 -439 0 -67 -6 -113 -19 -151 -13 -36 -17 -43 -13 -20 16 86
-5 179 -42 194 -113 43 -265 -123 -265 -289 0 -106 37 -151 118 -142 l45 5
-29 -24 c-99 -82 -252 -151 -414 -185 -125 -26 -361 -31 -480 -10 -178 31
-351 109 -453 203 -45 42 -47 46 -17 28 97 -56 169 15 157 155 -14 186 -219
322 -282 188 -22 -45 -16 -152 9 -202 10 -18 13 -31 8 -27 -19 11 -64 122 -79
191 -35 164 20 360 147 529 38 50 52 85 30 71 -12 -8 -205 182 -308 303 -58
68 -72 92 -78 129 -9 63 2 360 16 406 l11 38 27 -20 c15 -10 64 -51 110 -91z"/>
<path d="M2435 1865 c-140 -50 -150 -245 -15 -312 54 -28 104 -29 150 -4 133
70 108 280 -38 321 -46 12 -48 12 -97 -5z m94 -41 c12 -15 21 -34 21 -44 0
-10 -9 -29 -21 -44 -41 -52 -129 -23 -129 44 0 67 88 96 129 44z"/>
<path d="M1464 1851 c-57 -26 -87 -72 -92 -142 -8 -109 54 -179 159 -179 100
0 162 64 163 169 1 70 -24 117 -80 148 -48 28 -96 29 -150 4z m130 -12 c84
-39 31 -174 -55 -139 -56 24 -60 112 -6 138 29 14 32 14 61 1z"/>
<path d="M1980 1521 c0 -13 27 -21 45 -15 25 10 17 24 -15 24 -16 0 -30 -4
-30 -9z"/>
<path d="M1724 1419 c-3 -6 12 -27 34 -47 30 -28 41 -47 46 -81 16 -104 116
-251 178 -263 32 -6 92 13 119 38 41 37 90 126 112 203 12 45 27 81 33 81 17
0 54 44 54 64 0 15 -4 14 -31 -8 -33 -28 -61 -31 -124 -15 -104 26 -138 27
-229 8 -114 -23 -106 -24 -149 6 -22 14 -39 20 -43 14z"/>
</g>
</svg>
