<?xml version="1.0" standalone="no"?>
<!DOCTYPE svg PUBLIC "-//W3C//DTD SVG 20010904//EN"
 "http://www.w3.org/TR/2001/REC-SVG-20010904/DTD/svg10.dtd">
<svg version="1.0" xmlns="http://www.w3.org/2000/svg"
 width="400.000000pt" height="400.000000pt" viewBox="0 0 400.000000 400.000000"
 preserveAspectRatio="xMidYMid meet">
<metadata>
Created by potrace 1.10, written by Peter Selinger 2001-2011
</metadata>
<g transform="translate(0.000000,400.000000) scale(0.050000,-0.050000)"
fill="#fad61d" stroke="none">
<path d="M1173 6207 c-26 -27 -12 -201 28 -347 138 -508 653 -1255 1176 -1709
l160 -138 -66 -82 c-987 -1216 318 -2560 2128 -2191 1167 238 1666 1320 991
2148 l-90 111 316 316 c577 576 944 1166 1045 1681 39 199 22 230 -120 220
-494 -36 -1331 -797 -1780 -1621 -47 -85 -87 -155 -89 -155 -3 0 -58 22 -124
48 -388 158 -981 167 -1393 22 -80 -28 -158 -56 -175 -61 -21 -7 -51 30 -100
123 -379 723 -1061 1400 -1616 1602 -121 44 -263 60 -291 33z m1003 -607 c284
-246 629 -689 832 -1069 l74 -138 -56 -46 c-81 -66 -20 -60 142 14 467 211
1253 209 1716 -4 143 -66 195 -65 114 1 l-48 39 79 146 c171 319 371 594 621
854 143 150 450 423 476 423 32 0 64 -307 63 -611 l0 -342 -129 -158 c-176
-218 -612 -656 -637 -641 -55 34 -29 -32 60 -148 262 -345 371 -848 257 -1180
-25 -71 -34 -85 -26 -40 61 336 -95 496 -336 343 -348 -220 -381 -856 -43
-817 l90 10 -57 -48 c-675 -564 -2075 -555 -2693 16 -90 83 -95 91 -35 57 338
-195 449 431 125 698 -280 231 -536 -69 -356 -416 19 -37 26 -62 15 -56 -37
23 -129 245 -158 383 -70 327 40 721 294 1058 76 100 105 170 59 142 -63 -40
-751 732 -771 864 -19 127 4 719 32 812 l22 75 54 -38 c30 -22 129 -104 220
-183z"/>
<path d="M4870 3730 c-100 -36 -182 -124 -210 -230 -96 -357 388 -603 594
-302 189 277 -74 641 -384 532z m189 -83 c78 -99 16 -227 -110 -227 -86 0
-149 59 -149 140 0 134 175 193 259 87z"/>
<path d="M2928 3702 c-228 -104 -257 -453 -50 -593 221 -151 506 10 510 288 3
261 -225 412 -460 305z m260 -25 c168 -76 61 -347 -110 -276 -113 47 -120 223
-12 275 58 28 63 28 122 1z"/>
<path d="M3960 3042 c0 -25 54 -43 90 -29 51 19 33 47 -30 47 -33 0 -60 -8
-60 -18z"/>
<path d="M3449 2838 c-7 -11 23 -54 66 -94 61 -57 82 -95 93 -163 32 -207 232
-501 357 -525 179 -34 373 169 460 482 25 89 55 162 67 162 33 0 108 89 108
128 0 31 -9 28 -62 -16 -66 -56 -121 -63 -248 -31 -209 52 -276 55 -459 17
-226 -47 -212 -47 -298 11 -43 30 -77 41 -84 29z"/>
</g>
</svg>
